<svg xmlns="http://www.w3.org/2000/svg" width="96" height="80" viewBox="0 0 96 80" shape-rendering="crispEdges">
<!-- kyokoki-drum-kagenoko-v2 -->
<rect width="96" height="80" fill="none"/>

<path fill="#15152a" d="M9 21h6l3-10 7 8 8-12 6 12 9-7 2 11 7 6v26l-8 8H18l-9-9z"/>
<path fill="#202744" d="M14 23h7l4-9 5 10 7-13 4 13 9-8 1 10 6 5v20l-8 7H21l-7-7z"/>
<ellipse cx="34" cy="33" rx="17" ry="15" fill="#2b2148"/>
<circle cx="28" cy="31" r="3" fill="#ffd747"/><circle cx="40" cy="31" r="3" fill="#ffd747"/>
<path fill="#7f2e79" d="M27 39h14l-4 5h-7z"/>
<path fill="#1b2038" d="M20 48h27l5 14-8 10H20l-8-10z"/>
<rect x="26" y="53" width="17" height="5" fill="#8b34a1"/>
<rect x="14" y="66" width="14" height="8" fill="#1d1b34"/><rect x="39" y="66" width="14" height="8" fill="#1d1b34"/>
<ellipse cx="72" cy="42" rx="18" ry="27" fill="#5f341d"/><ellipse cx="72" cy="42" rx="14" ry="23" fill="#b56c32"/><ellipse cx="72" cy="42" rx="10" ry="19" fill="#d59a50"/>
<rect x="68" y="17" width="7" height="50" fill="#4a2a1a"/><rect x="55" y="38" width="33" height="7" fill="#4a2a1a"/>
<circle cx="72" cy="42" r="6" fill="#70401f"/>
<path fill="#2b2148" d="M35 35h8l12-17 5 4-10 21H36z"/><rect x="55" y="13" width="5" height="18" fill="#9c683a"/><circle cx="58" cy="12" r="5" fill="#d6a24c"/><circle cx="70" cy="40" r="22" fill="none" stroke="#ff9a32" stroke-width="3" opacity=".65"/>
</svg>
