<svg xmlns="http://www.w3.org/2000/svg" width="48" height="48" viewBox="0 0 48 48" shape-rendering="crispEdges">
<rect width="48" height="48" fill="none"/><path fill="#0b090e" d="M8 14h6V8h5V4h5v4h4V4h5v5h5v7h4v18h-5v6H12v-4H7V19h1z"/><path fill="#241724" d="M13 15h5v-4h15v4h5v17h-5v5H16v-4h-5V20h2z"/><path fill="#4b3148" d="M16 17h18v12H16z"/><path fill="#c09a80" d="M18 11h13v10H18z"/><rect x="20" y="13" width="3" height="2" fill="#ff574f"/><rect x="27" y="13" width="3" height="2" fill="#ff574f"/><path fill="#3b0b10" d="M16 23h21v14H16z"/><path fill="#8d171d" d="M18 25h17v10H18z"/><rect x="20" y="27" width="13" height="6" fill="#ff3d39"/><rect x="22" y="28" width="9" height="4" fill="#ff9b62"/><path fill="#0b090e" d="M4 16h5v4h5v4H7v-3H4zm36 0h4v4h-4v4h-6v-4h3v-3h3zM13 37h8v6h-8zm15 0h8v6h-8z"/><rect x="2" y="13" width="3" height="3" fill="#6fe7ff"/><rect x="43" y="12" width="3" height="3" fill="#ff4954"/></svg>
