<svg xmlns="http://www.w3.org/2000/svg" width="72" height="84" viewBox="0 0 72 84" shape-rendering="crispEdges">
<!-- ladder-goblin-frame-1-v2 -->
<rect width="72" height="84" fill="none"/>

<path fill="#182010" d="M10 7h9V4h31v3h8v5h11v10H58v8h-7v5H18v-4h-7v-8H2V13h8z"/>
<path fill="#526d2d" d="M13 8h8V6h26v3h8v5h10v6h-9v7h-7v5H20v-4h-6v-7H5v-5h8z"/>
<path fill="#7d9a45" d="M18 9h23v4h8v5h5v7h-7v4H20v-4h-6v-6h5z"/>
<rect x="21" y="16" width="4" height="4" fill="#354820"/><rect x="43" y="13" width="4" height="4" fill="#354820"/><rect x="49" y="24" width="4" height="4" fill="#354820"/>
<path fill="#282018" d="M18 34h37v25H18z"/><path fill="#503620" d="M22 36h29v20H22z"/><path fill="#76502d" d="M26 38h21v15H26z"/>
<path fill="#2c2018" d="M18 35h6l29 26h-6z"/><path fill="#8a6036" d="M20 35h3l27 25h-3z"/>
<rect x="17" y="55" width="39" height="6" fill="#2b2118"/>

<path fill="#25331a" d="M45 36h7v-8h3V15h-8v11h-6v8z"/><path fill="#769640" d="M46 35h4v-7h2V18h-5v9h-5v6z"/><rect x="47" y="11" width="9" height="8" fill="#8eaa52"/>
<path fill="#25331a" d="M19 38h-7v6H8v12h7v-8h7v-8z"/><rect x="7" y="53" width="8" height="7" fill="#8eaa52"/><path fill="#4f692e" d="M36 58h13v8h4v14H40V68h-3z"/><path fill="#4f692e" d="M23 58h12v10h-4v12H19V69h3z"/>
<rect x="17" y="74" width="16" height="8" fill="#7b5738"/><rect x="39" y="74" width="16" height="8" fill="#7b5738"/>
</svg>
