<svg xmlns="http://www.w3.org/2000/svg" width="54" height="70" viewBox="0 0 54 70" shape-rendering="crispEdges">
<rect width="54" height="70" fill="none"/>
<!-- large goblin head / ears -->
<path fill="#172012" d="M10 10h7V7h20v3h7v4h8v9h-7v7h-5v5H14v-4H9v-7H2V15h8z"/>
<path fill="#536b2b" d="M12 11h7V9h16v3h7v4h8v5h-8v7h-5v4H16v-3h-5v-7H4v-5h8z"/>
<path fill="#738f3d" d="M16 11h15v3h6v3h4v7h-4v4H17v-3h-5v-6h4z"/>
<path fill="#91a84e" d="M20 10h8v3h6v4h-7v-2h-7z"/>
<!-- spots / warts -->
<rect x="18" y="18" width="3" height="3" fill="#33441e"/>
<rect x="31" y="14" width="3" height="3" fill="#33441e"/>
<rect x="35" y="24" width="3" height="3" fill="#33441e"/>
<rect x="13" y="23" width="2" height="2" fill="#9fb65d"/>
<!-- neck / torso -->
<rect x="23" y="32" width="8" height="4" fill="#627d36"/>
<path fill="#2a2218" d="M15 35h24v20H15z"/>
<path fill="#4d3621" d="M18 36h18v17H18z"/>
<path fill="#6f4a28" d="M21 38h12v12H21z"/>
<!-- leather straps / pack -->
<path fill="#2c2119" d="M16 36h5l20 18h-5z"/>
<path fill="#8b6338" d="M18 36h3l18 17h-3z"/>
<path fill="#33251c" d="M35 37h6v13h-6z"/>
<rect x="36" y="39" width="4" height="8" fill="#725034"/>
<rect x="13" y="51" width="28" height="5" fill="#2a2118"/>
<path fill="#6c482b" d="M16 55h22v8H14v-5h2z"/>
<path fill="#8b6138" d="M18 56h18v5H16v-3h2z"/>
<!-- left high arm -->
<path fill="#536b2b" d="M16 36h-5v-7H8V18h7v9h5v7z"/>
<path fill="#789542" d="M11 27h5v7h-4v5H7v-8h4z"/>
<rect x="8" y="16" width="7" height="6" fill="#84a14b"/>
<path fill="#536b2b" d="M38 38h6v5h3v10h-6v-6h-6v-7z"/>
<rect x="41" y="51" width="7" height="6" fill="#84a14b"/>
<!-- legs -->
<path fill="#526b2d" d="M18 62h10v4h-4v4H13v-5h4z"/>
<path fill="#526b2d" d="M28 60h10v5h3v5H30v-6h-3z"/>
<path fill="#b59a70" d="M31 59h6v3h-6zm2 5h6v3h-6z"/>
<!-- club hilt on back -->
<path fill="#3c281d" d="M37 33h4l7 16h-4z"/>
<rect x="41" y="32" width="6" height="4" fill="#8a6038"/>
</svg>
