<svg xmlns="http://www.w3.org/2000/svg" width="28" height="64" viewBox="0 0 28 64" shape-rendering="crispEdges">
<!-- frameA-right-hand-high-skeleton-reference-design -->
<rect x="3" y="0" width="1" height="1" fill="#080604"/>
<rect x="5" y="0" width="1" height="1" fill="#0b0a08"/>
<rect x="2" y="1" width="1" height="1" fill="#040403"/>
<rect x="3" y="1" width="1" height="1" fill="#f4e7d0"/>
<rect x="4" y="1" width="2" height="1" fill="#f9efd9"/>
<rect x="6" y="1" width="1" height="1" fill="#efe1c9"/>
<rect x="7" y="1" width="1" height="1" fill="#000000"/>
<rect x="1" y="2" width="1" height="1" fill="#020201"/>
<rect x="2" y="2" width="1" height="1" fill="#cfc2ac"/>
<rect x="3" y="2" width="3" height="1" fill="#f4e7d0"/>
<rect x="6" y="2" width="1" height="1" fill="#ebdfc7"/>
<rect x="7" y="2" width="1" height="1" fill="#cfc2ac"/>
<rect x="8" y="2" width="1" height="1" fill="#080604"/>
<rect x="1" y="3" width="1" height="1" fill="#040403"/>
<rect x="2" y="3" width="1" height="1" fill="#bfb29c"/>
<rect x="3" y="3" width="1" height="1" fill="#f9efd9"/>
<rect x="4" y="3" width="2" height="1" fill="#f4e7d0"/>
<rect x="6" y="3" width="1" height="1" fill="#e7d9c2"/>
<rect x="7" y="3" width="1" height="1" fill="#cfc2ac"/>
<rect x="8" y="3" width="1" height="1" fill="#040403"/>
<rect x="1" y="4" width="1" height="1" fill="#000000"/>
<rect x="2" y="4" width="1" height="1" fill="#8e7a5b"/>
<rect x="3" y="4" width="1" height="1" fill="#bfb29c"/>
<rect x="4" y="4" width="1" height="1" fill="#ebdfc7"/>
<rect x="5" y="4" width="1" height="1" fill="#e7d9c2"/>
<rect x="6" y="4" width="1" height="1" fill="#b4a692"/>
<rect x="7" y="4" width="1" height="1" fill="#685d55"/>
<rect x="8" y="4" width="1" height="1" fill="#000000"/>
<rect x="2" y="5" width="1" height="1" fill="#040403"/>
<rect x="3" y="5" width="1" height="1" fill="#28221d"/>
<rect x="4" y="5" width="2" height="1" fill="#a79579"/>
<rect x="6" y="5" width="1" height="1" fill="#8e7a5b"/>
<rect x="7" y="5" width="1" height="1" fill="#000000"/>
<rect x="2" y="6" width="1" height="1" fill="#0b0a08"/>
<rect x="3" y="6" width="2" height="1" fill="#ebdfc7"/>
<rect x="5" y="6" width="1" height="1" fill="#685d55"/>
<rect x="7" y="6" width="1" height="1" fill="#685d55"/>
<rect x="11" y="6" width="6" height="1" fill="#0b0a08"/>
<rect x="17" y="6" width="1" height="1" fill="#040403"/>
<rect x="2" y="7" width="1" height="1" fill="#17110d"/>
<rect x="3" y="7" width="1" height="1" fill="#f4e7d0"/>
<rect x="4" y="7" width="1" height="1" fill="#e7d9c2"/>
<rect x="5" y="7" width="1" height="1" fill="#685d55"/>
<rect x="6" y="7" width="1" height="1" fill="#28221d"/>
<rect x="10" y="7" width="1" height="1" fill="#040403"/>
<rect x="11" y="7" width="1" height="1" fill="#0b0a08"/>
<rect x="12" y="7" width="1" height="1" fill="#e7d9c2"/>
<rect x="13" y="7" width="3" height="1" fill="#ebdfc7"/>
<rect x="16" y="7" width="1" height="1" fill="#e7d9c2"/>
<rect x="17" y="7" width="1" height="1" fill="#6d4a3a"/>
<rect x="18" y="7" width="1" height="1" fill="#0b0a08"/>
<rect x="2" y="8" width="1" height="1" fill="#cfc2ac"/>
<rect x="3" y="8" width="1" height="1" fill="#f4e7d0"/>
<rect x="4" y="8" width="1" height="1" fill="#bfb29c"/>
<rect x="5" y="8" width="1" height="1" fill="#000000"/>
<rect x="9" y="8" width="1" height="1" fill="#17110d"/>
<rect x="10" y="8" width="1" height="1" fill="#b4a692"/>
<rect x="11" y="8" width="1" height="1" fill="#efe1c9"/>
<rect x="12" y="8" width="1" height="1" fill="#ebdfc7"/>
<rect x="13" y="8" width="1" height="1" fill="#f4e7d0"/>
<rect x="14" y="8" width="2" height="1" fill="#f9efd9"/>
<rect x="16" y="8" width="2" height="1" fill="#e7d9c2"/>
<rect x="18" y="8" width="1" height="1" fill="#8e7a5b"/>
<rect x="19" y="8" width="1" height="1" fill="#080604"/>
<rect x="1" y="9" width="1" height="1" fill="#0b0a08"/>
<rect x="2" y="9" width="2" height="1" fill="#e7d9c2"/>
<rect x="4" y="9" width="1" height="1" fill="#a79579"/>
<rect x="5" y="9" width="1" height="1" fill="#040403"/>
<rect x="8" y="9" width="1" height="1" fill="#0b0a08"/>
<rect x="9" y="9" width="1" height="1" fill="#a79579"/>
<rect x="10" y="9" width="1" height="1" fill="#e7d9c2"/>
<rect x="11" y="9" width="1" height="1" fill="#efe1c9"/>
<rect x="12" y="9" width="2" height="1" fill="#f9efd9"/>
<rect x="14" y="9" width="1" height="1" fill="#f4e7d0"/>
<rect x="15" y="9" width="2" height="1" fill="#f9efd9"/>
<rect x="17" y="9" width="1" height="1" fill="#efe1c9"/>
<rect x="18" y="9" width="1" height="1" fill="#ebdfc7"/>
<rect x="19" y="9" width="1" height="1" fill="#b4a692"/>
<rect x="20" y="9" width="1" height="1" fill="#020201"/>
<rect x="1" y="10" width="1" height="1" fill="#685d55"/>
<rect x="2" y="10" width="1" height="1" fill="#f4e7d0"/>
<rect x="3" y="10" width="1" height="1" fill="#bfb29c"/>
<rect x="4" y="10" width="1" height="1" fill="#040403"/>
<rect x="9" y="10" width="1" height="1" fill="#bfb29c"/>
<rect x="10" y="10" width="6" height="1" fill="#efe1c9"/>
<rect x="16" y="10" width="3" height="1" fill="#ebdfc7"/>
<rect x="19" y="10" width="1" height="1" fill="#bfb29c"/>
<rect x="20" y="10" width="1" height="1" fill="#040403"/>
<rect x="1" y="11" width="2" height="1" fill="#f9efd9"/>
<rect x="3" y="11" width="1" height="1" fill="#b4a692"/>
<rect x="4" y="11" width="2" height="1" fill="#000000"/>
<rect x="7" y="11" width="1" height="1" fill="#000002"/>
<rect x="8" y="11" width="1" height="1" fill="#28221d"/>
<rect x="9" y="11" width="1" height="1" fill="#cfc2ac"/>
<rect x="10" y="11" width="3" height="1" fill="#efe1c9"/>
<rect x="13" y="11" width="6" height="1" fill="#ebdfc7"/>
<rect x="19" y="11" width="1" height="1" fill="#cfc2ac"/>
<rect x="20" y="11" width="1" height="1" fill="#b4a692"/>
<rect x="0" y="12" width="1" height="1" fill="#000000"/>
<rect x="1" y="12" width="1" height="1" fill="#b4a692"/>
<rect x="2" y="12" width="1" height="1" fill="#f9efd9"/>
<rect x="3" y="12" width="1" height="1" fill="#a79579"/>
<rect x="4" y="12" width="1" height="1" fill="#000000"/>
<rect x="8" y="12" width="1" height="1" fill="#28221d"/>
<rect x="9" y="12" width="1" height="1" fill="#bfb29c"/>
<rect x="10" y="12" width="1" height="1" fill="#e7d9c2"/>
<rect x="11" y="12" width="8" height="1" fill="#ebdfc7"/>
<rect x="19" y="12" width="1" height="1" fill="#cfc2ac"/>
<rect x="20" y="12" width="1" height="1" fill="#b4a692"/>
<rect x="1" y="13" width="1" height="1" fill="#000000"/>
<rect x="2" y="13" width="2" height="1" fill="#020201"/>
<rect x="8" y="13" width="1" height="1" fill="#28221d"/>
<rect x="9" y="13" width="2" height="1" fill="#bfb29c"/>
<rect x="11" y="13" width="1" height="1" fill="#efe1c9"/>
<rect x="12" y="13" width="4" height="1" fill="#ebdfc7"/>
<rect x="16" y="13" width="2" height="1" fill="#efe1c9"/>
<rect x="18" y="13" width="1" height="1" fill="#e7d9c2"/>
<rect x="19" y="13" width="1" height="1" fill="#cfc2ac"/>
<rect x="20" y="13" width="1" height="1" fill="#a79579"/>
<rect x="21" y="13" width="1" height="1" fill="#020201"/>
<rect x="1" y="14" width="1" height="1" fill="#8e7a5b"/>
<rect x="2" y="14" width="1" height="1" fill="#f9efd9"/>
<rect x="3" y="14" width="1" height="1" fill="#f4e7d0"/>
<rect x="4" y="14" width="1" height="1" fill="#040403"/>
<rect x="7" y="14" width="1" height="1" fill="#080604"/>
<rect x="8" y="14" width="1" height="1" fill="#28221d"/>
<rect x="9" y="14" width="1" height="1" fill="#a79579"/>
<rect x="10" y="14" width="2" height="1" fill="#bfb29c"/>
<rect x="12" y="14" width="1" height="1" fill="#cfc2ac"/>
<rect x="13" y="14" width="2" height="1" fill="#ebdfc7"/>
<rect x="15" y="14" width="1" height="1" fill="#e7d9c2"/>
<rect x="16" y="14" width="3" height="1" fill="#cfc2ac"/>
<rect x="19" y="14" width="2" height="1" fill="#a79579"/>
<rect x="21" y="14" width="1" height="1" fill="#020201"/>
<rect x="1" y="15" width="1" height="1" fill="#e7d9c2"/>
<rect x="2" y="15" width="1" height="1" fill="#f4e7d0"/>
<rect x="3" y="15" width="1" height="1" fill="#f9efd9"/>
<rect x="4" y="15" width="1" height="1" fill="#bfb29c"/>
<rect x="5" y="15" width="1" height="1" fill="#000002"/>
<rect x="7" y="15" width="1" height="1" fill="#040403"/>
<rect x="8" y="15" width="1" height="1" fill="#28221d"/>
<rect x="9" y="15" width="2" height="1" fill="#a79579"/>
<rect x="11" y="15" width="1" height="1" fill="#b4a692"/>
<rect x="12" y="15" width="4" height="1" fill="#bfb29c"/>
<rect x="16" y="15" width="2" height="1" fill="#b4a692"/>
<rect x="18" y="15" width="2" height="1" fill="#a79579"/>
<rect x="20" y="15" width="1" height="1" fill="#4b433d"/>
<rect x="21" y="15" width="1" height="1" fill="#020201"/>
<rect x="1" y="16" width="1" height="1" fill="#040403"/>
<rect x="2" y="16" width="1" height="1" fill="#b4a692"/>
<rect x="3" y="16" width="1" height="1" fill="#ebdfc7"/>
<rect x="4" y="16" width="1" height="1" fill="#e7d9c2"/>
<rect x="5" y="16" width="1" height="1" fill="#472f21"/>
<rect x="6" y="16" width="1" height="1" fill="#040403"/>
<rect x="9" y="16" width="1" height="1" fill="#8e7a5b"/>
<rect x="10" y="16" width="9" height="1" fill="#a79579"/>
<rect x="19" y="16" width="1" height="1" fill="#8e7a5b"/>
<rect x="20" y="16" width="1" height="1" fill="#040403"/>
<rect x="2" y="17" width="1" height="1" fill="#000000"/>
<rect x="3" y="17" width="1" height="1" fill="#a79579"/>
<rect x="4" y="17" width="1" height="1" fill="#ebdfc7"/>
<rect x="5" y="17" width="1" height="1" fill="#efe1c9"/>
<rect x="6" y="17" width="1" height="1" fill="#4b433d"/>
<rect x="7" y="17" width="1" height="1" fill="#17110d"/>
<rect x="8" y="17" width="1" height="1" fill="#472f21"/>
<rect x="9" y="17" width="1" height="1" fill="#0b0a08"/>
<rect x="10" y="17" width="1" height="1" fill="#4b433d"/>
<rect x="11" y="17" width="3" height="1" fill="#685d55"/>
<rect x="14" y="17" width="4" height="1" fill="#8e7a5b"/>
<rect x="18" y="17" width="1" height="1" fill="#685d55"/>
<rect x="19" y="17" width="1" height="1" fill="#020201"/>
<rect x="21" y="17" width="1" height="1" fill="#000000"/>
<rect x="2" y="18" width="1" height="1" fill="#000000"/>
<rect x="3" y="18" width="1" height="1" fill="#040403"/>
<rect x="4" y="18" width="1" height="1" fill="#b4a692"/>
<rect x="5" y="18" width="1" height="1" fill="#ebdfc7"/>
<rect x="6" y="18" width="1" height="1" fill="#b4a692"/>
<rect x="8" y="18" width="1" height="1" fill="#4b433d"/>
<rect x="9" y="18" width="1" height="1" fill="#040403"/>
<rect x="10" y="18" width="1" height="1" fill="#020201"/>
<rect x="11" y="18" width="1" height="1" fill="#000000"/>
<rect x="12" y="18" width="3" height="1" fill="#685d55"/>
<rect x="15" y="18" width="1" height="1" fill="#4b433d"/>
<rect x="16" y="18" width="1" height="1" fill="#685d55"/>
<rect x="17" y="18" width="1" height="1" fill="#28221d"/>
<rect x="18" y="18" width="1" height="1" fill="#040403"/>
<rect x="19" y="18" width="1" height="1" fill="#020201"/>
<rect x="20" y="18" width="1" height="1" fill="#080604"/>
<rect x="21" y="18" width="1" height="1" fill="#040403"/>
<rect x="25" y="18" width="1" height="1" fill="#000000"/>
<rect x="5" y="19" width="1" height="1" fill="#b4a692"/>
<rect x="6" y="19" width="1" height="1" fill="#e7d9c2"/>
<rect x="7" y="19" width="3" height="1" fill="#000000"/>
<rect x="10" y="19" width="1" height="1" fill="#4b433d"/>
<rect x="11" y="19" width="1" height="1" fill="#17110d"/>
<rect x="12" y="19" width="1" height="1" fill="#080604"/>
<rect x="13" y="19" width="1" height="1" fill="#685d55"/>
<rect x="14" y="19" width="2" height="1" fill="#a79579"/>
<rect x="16" y="19" width="1" height="1" fill="#000000"/>
<rect x="17" y="19" width="1" height="1" fill="#020201"/>
<rect x="18" y="19" width="1" height="1" fill="#472f21"/>
<rect x="19" y="19" width="1" height="1" fill="#4b433d"/>
<rect x="20" y="19" width="1" height="1" fill="#000000"/>
<rect x="21" y="19" width="2" height="1" fill="#8e7a5b"/>
<rect x="23" y="19" width="1" height="1" fill="#6d4a3a"/>
<rect x="24" y="19" width="1" height="1" fill="#8e7a5b"/>
<rect x="25" y="19" width="1" height="1" fill="#020201"/>
<rect x="4" y="20" width="1" height="1" fill="#28221d"/>
<rect x="5" y="20" width="1" height="1" fill="#4b433d"/>
<rect x="6" y="20" width="1" height="1" fill="#8e7a5b"/>
<rect x="7" y="20" width="1" height="1" fill="#e7d9c2"/>
<rect x="8" y="20" width="1" height="1" fill="#ebdfc7"/>
<rect x="9" y="20" width="1" height="1" fill="#4b433d"/>
<rect x="10" y="20" width="1" height="1" fill="#080604"/>
<rect x="11" y="20" width="1" height="1" fill="#040403"/>
<rect x="12" y="20" width="1" height="1" fill="#020201"/>
<rect x="13" y="20" width="1" height="1" fill="#685d55"/>
<rect x="14" y="20" width="1" height="1" fill="#cfc2ac"/>
<rect x="15" y="20" width="1" height="1" fill="#000000"/>
<rect x="16" y="20" width="1" height="1" fill="#17110d"/>
<rect x="21" y="20" width="1" height="1" fill="#8e7a5b"/>
<rect x="22" y="20" width="1" height="1" fill="#693d28"/>
<rect x="24" y="20" width="1" height="1" fill="#020201"/>
<rect x="4" y="21" width="1" height="1" fill="#8e7a5b"/>
<rect x="5" y="21" width="1" height="1" fill="#0b0a08"/>
<rect x="6" y="21" width="1" height="1" fill="#a79579"/>
<rect x="7" y="21" width="2" height="1" fill="#e7d9c2"/>
<rect x="9" y="21" width="1" height="1" fill="#cfc2ac"/>
<rect x="10" y="21" width="1" height="1" fill="#685d55"/>
<rect x="11" y="21" width="1" height="1" fill="#28221d"/>
<rect x="12" y="21" width="1" height="1" fill="#020201"/>
<rect x="13" y="21" width="2" height="1" fill="#b4a692"/>
<rect x="15" y="21" width="1" height="1" fill="#000000"/>
<rect x="16" y="21" width="1" height="1" fill="#8e7a5b"/>
<rect x="19" y="21" width="2" height="1" fill="#8e7a5b"/>
<rect x="21" y="21" width="1" height="1" fill="#6d4a3a"/>
<rect x="22" y="21" width="1" height="1" fill="#030001"/>
<rect x="23" y="21" width="1" height="1" fill="#000000"/>
<rect x="4" y="22" width="1" height="1" fill="#8e7a5b"/>
<rect x="5" y="22" width="1" height="1" fill="#040403"/>
<rect x="6" y="22" width="1" height="1" fill="#a79579"/>
<rect x="7" y="22" width="1" height="1" fill="#b4a692"/>
<rect x="8" y="22" width="1" height="1" fill="#bfb29c"/>
<rect x="9" y="22" width="1" height="1" fill="#b4a692"/>
<rect x="10" y="22" width="1" height="1" fill="#e7d9c2"/>
<rect x="11" y="22" width="1" height="1" fill="#cfc2ac"/>
<rect x="12" y="22" width="1" height="1" fill="#000000"/>
<rect x="13" y="22" width="1" height="1" fill="#bfb29c"/>
<rect x="14" y="22" width="1" height="1" fill="#e7d9c2"/>
<rect x="15" y="22" width="1" height="1" fill="#040403"/>
<rect x="16" y="22" width="1" height="1" fill="#020201"/>
<rect x="18" y="22" width="1" height="1" fill="#8e7a5b"/>
<rect x="19" y="22" width="1" height="1" fill="#080604"/>
<rect x="20" y="22" width="1" height="1" fill="#693d28"/>
<rect x="21" y="22" width="1" height="1" fill="#17110d"/>
<rect x="22" y="22" width="1" height="1" fill="#080604"/>
<rect x="5" y="23" width="1" height="1" fill="#040403"/>
<rect x="6" y="23" width="1" height="1" fill="#4b433d"/>
<rect x="7" y="23" width="1" height="1" fill="#b4a692"/>
<rect x="8" y="23" width="3" height="1" fill="#cfc2ac"/>
<rect x="11" y="23" width="1" height="1" fill="#472f21"/>
<rect x="12" y="23" width="1" height="1" fill="#000000"/>
<rect x="13" y="23" width="1" height="1" fill="#cfc2ac"/>
<rect x="14" y="23" width="1" height="1" fill="#4b433d"/>
<rect x="15" y="23" width="1" height="1" fill="#17110d"/>
<rect x="16" y="23" width="1" height="1" fill="#685d55"/>
<rect x="20" y="23" width="1" height="1" fill="#000000"/>
<rect x="21" y="23" width="1" height="1" fill="#28221d"/>
<rect x="22" y="23" width="1" height="1" fill="#080604"/>
<rect x="6" y="24" width="1" height="1" fill="#000000"/>
<rect x="7" y="24" width="1" height="1" fill="#4b433d"/>
<rect x="8" y="24" width="2" height="1" fill="#cfc2ac"/>
<rect x="10" y="24" width="1" height="1" fill="#a79579"/>
<rect x="11" y="24" width="1" height="1" fill="#040403"/>
<rect x="12" y="24" width="1" height="1" fill="#020201"/>
<rect x="13" y="24" width="1" height="1" fill="#17110d"/>
<rect x="14" y="24" width="1" height="1" fill="#4b433d"/>
<rect x="15" y="24" width="2" height="1" fill="#685d55"/>
<rect x="17" y="24" width="1" height="1" fill="#4b433d"/>
<rect x="19" y="24" width="2" height="1" fill="#8e7a5b"/>
<rect x="22" y="24" width="1" height="1" fill="#f9efd9"/>
<rect x="23" y="24" width="1" height="1" fill="#000000"/>
<rect x="6" y="25" width="1" height="1" fill="#000000"/>
<rect x="7" y="25" width="1" height="1" fill="#080604"/>
<rect x="8" y="25" width="1" height="1" fill="#040403"/>
<rect x="10" y="25" width="1" height="1" fill="#a79579"/>
<rect x="11" y="25" width="1" height="1" fill="#cfc2ac"/>
<rect x="12" y="25" width="1" height="1" fill="#080604"/>
<rect x="13" y="25" width="1" height="1" fill="#28221d"/>
<rect x="14" y="25" width="3" height="1" fill="#685d55"/>
<rect x="17" y="25" width="2" height="1" fill="#4b433d"/>
<rect x="19" y="25" width="1" height="1" fill="#020201"/>
<rect x="20" y="25" width="1" height="1" fill="#693d28"/>
<rect x="21" y="25" width="1" height="1" fill="#020201"/>
<rect x="22" y="25" width="2" height="1" fill="#f9efd9"/>
<rect x="24" y="25" width="1" height="1" fill="#000002"/>
<rect x="6" y="26" width="1" height="1" fill="#000000"/>
<rect x="7" y="26" width="1" height="1" fill="#bfb29c"/>
<rect x="8" y="26" width="1" height="1" fill="#e7d9c2"/>
<rect x="9" y="26" width="1" height="1" fill="#f4e7d0"/>
<rect x="10" y="26" width="1" height="1" fill="#cfc2ac"/>
<rect x="11" y="26" width="1" height="1" fill="#0b0a08"/>
<rect x="12" y="26" width="1" height="1" fill="#17110d"/>
<rect x="13" y="26" width="3" height="1" fill="#685d55"/>
<rect x="16" y="26" width="2" height="1" fill="#4b433d"/>
<rect x="18" y="26" width="1" height="1" fill="#0b0a08"/>
<rect x="19" y="26" width="1" height="1" fill="#040403"/>
<rect x="20" y="26" width="1" height="1" fill="#080604"/>
<rect x="21" y="26" width="1" height="1" fill="#b4a692"/>
<rect x="22" y="26" width="2" height="1" fill="#f4e7d0"/>
<rect x="24" y="26" width="1" height="1" fill="#0b0a08"/>
<rect x="25" y="26" width="1" height="1" fill="#000000"/>
<rect x="6" y="27" width="1" height="1" fill="#040403"/>
<rect x="7" y="27" width="1" height="1" fill="#b4a692"/>
<rect x="8" y="27" width="1" height="1" fill="#efe1c9"/>
<rect x="9" y="27" width="1" height="1" fill="#f4e7d0"/>
<rect x="10" y="27" width="1" height="1" fill="#28221d"/>
<rect x="11" y="27" width="1" height="1" fill="#020201"/>
<rect x="12" y="27" width="3" height="1" fill="#685d55"/>
<rect x="15" y="27" width="2" height="1" fill="#4b433d"/>
<rect x="17" y="27" width="1" height="1" fill="#28221d"/>
<rect x="18" y="27" width="1" height="1" fill="#0b0a08"/>
<rect x="19" y="27" width="1" height="1" fill="#e7d9c2"/>
<rect x="20" y="27" width="1" height="1" fill="#040403"/>
<rect x="21" y="27" width="1" height="1" fill="#bfb29c"/>
<rect x="22" y="27" width="1" height="1" fill="#cfc2ac"/>
<rect x="23" y="27" width="1" height="1" fill="#efe1c9"/>
<rect x="24" y="27" width="1" height="1" fill="#e7d9c2"/>
<rect x="25" y="27" width="1" height="1" fill="#0b0a08"/>
<rect x="6" y="28" width="1" height="1" fill="#4b433d"/>
<rect x="7" y="28" width="1" height="1" fill="#28221d"/>
<rect x="8" y="28" width="1" height="1" fill="#8e7a5b"/>
<rect x="9" y="28" width="1" height="1" fill="#472f21"/>
<rect x="10" y="28" width="1" height="1" fill="#040403"/>
<rect x="11" y="28" width="3" height="1" fill="#685d55"/>
<rect x="14" y="28" width="2" height="1" fill="#4b433d"/>
<rect x="16" y="28" width="1" height="1" fill="#28221d"/>
<rect x="17" y="28" width="1" height="1" fill="#040403"/>
<rect x="18" y="28" width="1" height="1" fill="#cfc2ac"/>
<rect x="19" y="28" width="1" height="1" fill="#b4a692"/>
<rect x="20" y="28" width="1" height="1" fill="#000000"/>
<rect x="21" y="28" width="1" height="1" fill="#0b0a08"/>
<rect x="22" y="28" width="1" height="1" fill="#bfb29c"/>
<rect x="23" y="28" width="1" height="1" fill="#ebdfc7"/>
<rect x="24" y="28" width="1" height="1" fill="#cfc2ac"/>
<rect x="25" y="28" width="1" height="1" fill="#b4a692"/>
<rect x="26" y="28" width="1" height="1" fill="#080604"/>
<rect x="6" y="29" width="1" height="1" fill="#4b433d"/>
<rect x="7" y="29" width="1" height="1" fill="#080604"/>
<rect x="8" y="29" width="1" height="1" fill="#0b0a08"/>
<rect x="9" y="29" width="1" height="1" fill="#28221d"/>
<rect x="10" y="29" width="3" height="1" fill="#685d55"/>
<rect x="13" y="29" width="2" height="1" fill="#4b433d"/>
<rect x="15" y="29" width="1" height="1" fill="#17110d"/>
<rect x="16" y="29" width="1" height="1" fill="#000000"/>
<rect x="17" y="29" width="2" height="1" fill="#8e7a5b"/>
<rect x="19" y="29" width="1" height="1" fill="#000000"/>
<rect x="20" y="29" width="1" height="1" fill="#472f21"/>
<rect x="21" y="29" width="1" height="1" fill="#0b0a08"/>
<rect x="22" y="29" width="1" height="1" fill="#4b433d"/>
<rect x="23" y="29" width="1" height="1" fill="#a79579"/>
<rect x="24" y="29" width="1" height="1" fill="#bfb29c"/>
<rect x="25" y="29" width="1" height="1" fill="#f4e7d0"/>
<rect x="26" y="29" width="1" height="1" fill="#e7d9c2"/>
<rect x="27" y="29" width="1" height="1" fill="#000000"/>
<rect x="7" y="30" width="1" height="1" fill="#080604"/>
<rect x="8" y="30" width="1" height="1" fill="#28221d"/>
<rect x="9" y="30" width="3" height="1" fill="#685d55"/>
<rect x="12" y="30" width="2" height="1" fill="#4b433d"/>
<rect x="14" y="30" width="1" height="1" fill="#28221d"/>
<rect x="15" y="30" width="1" height="1" fill="#040403"/>
<rect x="16" y="30" width="1" height="1" fill="#bfb29c"/>
<rect x="17" y="30" width="1" height="1" fill="#8e7a5b"/>
<rect x="18" y="30" width="1" height="1" fill="#28221d"/>
<rect x="19" y="30" width="1" height="1" fill="#000000"/>
<rect x="22" y="30" width="1" height="1" fill="#080604"/>
<rect x="23" y="30" width="1" height="1" fill="#a79579"/>
<rect x="24" y="30" width="1" height="1" fill="#f4e7d0"/>
<rect x="25" y="30" width="1" height="1" fill="#f9efd9"/>
<rect x="26" y="30" width="1" height="1" fill="#f4e7d0"/>
<rect x="27" y="30" width="1" height="1" fill="#000000"/>
<rect x="6" y="31" width="2" height="1" fill="#040403"/>
<rect x="8" y="31" width="3" height="1" fill="#685d55"/>
<rect x="11" y="31" width="2" height="1" fill="#4b433d"/>
<rect x="13" y="31" width="1" height="1" fill="#28221d"/>
<rect x="14" y="31" width="1" height="1" fill="#040403"/>
<rect x="15" y="31" width="2" height="1" fill="#000000"/>
<rect x="17" y="31" width="1" height="1" fill="#020201"/>
<rect x="18" y="31" width="1" height="1" fill="#000000"/>
<rect x="22" y="31" width="1" height="1" fill="#040403"/>
<rect x="23" y="31" width="1" height="1" fill="#a79579"/>
<rect x="24" y="31" width="1" height="1" fill="#f4e7d0"/>
<rect x="25" y="31" width="1" height="1" fill="#f9efd9"/>
<rect x="26" y="31" width="1" height="1" fill="#cfc2ac"/>
<rect x="27" y="31" width="1" height="1" fill="#040403"/>
<rect x="5" y="32" width="2" height="1" fill="#000000"/>
<rect x="7" y="32" width="3" height="1" fill="#685d55"/>
<rect x="10" y="32" width="2" height="1" fill="#4b433d"/>
<rect x="12" y="32" width="1" height="1" fill="#472f21"/>
<rect x="13" y="32" width="1" height="1" fill="#000002"/>
<rect x="14" y="32" width="1" height="1" fill="#8e7a5b"/>
<rect x="15" y="32" width="1" height="1" fill="#000000"/>
<rect x="22" y="32" width="2" height="1" fill="#040403"/>
<rect x="24" y="32" width="1" height="1" fill="#bfb29c"/>
<rect x="25" y="32" width="1" height="1" fill="#cfc2ac"/>
<rect x="26" y="32" width="1" height="1" fill="#040403"/>
<rect x="4" y="33" width="1" height="1" fill="#020201"/>
<rect x="5" y="33" width="1" height="1" fill="#080604"/>
<rect x="6" y="33" width="3" height="1" fill="#685d55"/>
<rect x="9" y="33" width="1" height="1" fill="#4b433d"/>
<rect x="10" y="33" width="1" height="1" fill="#472f21"/>
<rect x="11" y="33" width="1" height="1" fill="#28221d"/>
<rect x="12" y="33" width="1" height="1" fill="#030001"/>
<rect x="13" y="33" width="1" height="1" fill="#8e7a5b"/>
<rect x="14" y="33" width="1" height="1" fill="#a79579"/>
<rect x="15" y="33" width="1" height="1" fill="#000000"/>
<rect x="25" y="33" width="1" height="1" fill="#0b0a08"/>
<rect x="3" y="34" width="1" height="1" fill="#040403"/>
<rect x="4" y="34" width="1" height="1" fill="#472f21"/>
<rect x="5" y="34" width="1" height="1" fill="#4b433d"/>
<rect x="6" y="34" width="2" height="1" fill="#685d55"/>
<rect x="8" y="34" width="2" height="1" fill="#4b433d"/>
<rect x="10" y="34" width="1" height="1" fill="#28221d"/>
<rect x="11" y="34" width="1" height="1" fill="#040403"/>
<rect x="12" y="34" width="1" height="1" fill="#685d55"/>
<rect x="13" y="34" width="1" height="1" fill="#e7d9c2"/>
<rect x="14" y="34" width="1" height="1" fill="#cfc2ac"/>
<rect x="15" y="34" width="1" height="1" fill="#000000"/>
<rect x="16" y="34" width="1" height="1" fill="#020201"/>
<rect x="17" y="34" width="1" height="1" fill="#080604"/>
<rect x="18" y="34" width="1" height="1" fill="#040403"/>
<rect x="19" y="34" width="2" height="1" fill="#080604"/>
<rect x="2" y="35" width="1" height="1" fill="#020201"/>
<rect x="3" y="35" width="1" height="1" fill="#4b433d"/>
<rect x="4" y="35" width="3" height="1" fill="#685d55"/>
<rect x="7" y="35" width="2" height="1" fill="#4b433d"/>
<rect x="9" y="35" width="1" height="1" fill="#17110d"/>
<rect x="10" y="35" width="1" height="1" fill="#0b0a08"/>
<rect x="11" y="35" width="1" height="1" fill="#b4a692"/>
<rect x="12" y="35" width="1" height="1" fill="#e7d9c2"/>
<rect x="13" y="35" width="1" height="1" fill="#f4e7d0"/>
<rect x="14" y="35" width="1" height="1" fill="#f9efd9"/>
<rect x="15" y="35" width="1" height="1" fill="#ebdfc7"/>
<rect x="16" y="35" width="1" height="1" fill="#080604"/>
<rect x="17" y="35" width="1" height="1" fill="#b4a692"/>
<rect x="18" y="35" width="1" height="1" fill="#000000"/>
<rect x="19" y="35" width="2" height="1" fill="#472f21"/>
<rect x="21" y="35" width="1" height="1" fill="#030001"/>
<rect x="2" y="36" width="1" height="1" fill="#000000"/>
<rect x="3" y="36" width="3" height="1" fill="#685d55"/>
<rect x="6" y="36" width="2" height="1" fill="#4b433d"/>
<rect x="8" y="36" width="1" height="1" fill="#28221d"/>
<rect x="9" y="36" width="2" height="1" fill="#17110d"/>
<rect x="11" y="36" width="5" height="1" fill="#0b0a08"/>
<rect x="16" y="36" width="1" height="1" fill="#020201"/>
<rect x="17" y="36" width="1" height="1" fill="#17110d"/>
<rect x="18" y="36" width="1" height="1" fill="#28221d"/>
<rect x="19" y="36" width="2" height="1" fill="#472f21"/>
<rect x="21" y="36" width="1" height="1" fill="#17110d"/>
<rect x="2" y="37" width="1" height="1" fill="#000000"/>
<rect x="3" y="37" width="4" height="1" fill="#4b433d"/>
<rect x="7" y="37" width="2" height="1" fill="#28221d"/>
<rect x="9" y="37" width="1" height="1" fill="#472f21"/>
<rect x="10" y="37" width="6" height="1" fill="#693d28"/>
<rect x="16" y="37" width="2" height="1" fill="#472f21"/>
<rect x="18" y="37" width="3" height="1" fill="#693d28"/>
<rect x="21" y="37" width="1" height="1" fill="#28221d"/>
<rect x="22" y="37" width="1" height="1" fill="#000000"/>
<rect x="3" y="38" width="1" height="1" fill="#030001"/>
<rect x="4" y="38" width="2" height="1" fill="#472f21"/>
<rect x="6" y="38" width="1" height="1" fill="#28221d"/>
<rect x="7" y="38" width="1" height="1" fill="#080604"/>
<rect x="8" y="38" width="1" height="1" fill="#472f21"/>
<rect x="9" y="38" width="2" height="1" fill="#6d4a3a"/>
<rect x="11" y="38" width="8" height="1" fill="#693d28"/>
<rect x="19" y="38" width="2" height="1" fill="#472f21"/>
<rect x="21" y="38" width="1" height="1" fill="#693d28"/>
<rect x="22" y="38" width="2" height="1" fill="#000000"/>
<rect x="4" y="39" width="2" height="1" fill="#020201"/>
<rect x="6" y="39" width="1" height="1" fill="#000000"/>
<rect x="7" y="39" width="1" height="1" fill="#472f21"/>
<rect x="8" y="39" width="1" height="1" fill="#693d28"/>
<rect x="9" y="39" width="1" height="1" fill="#6d4a3a"/>
<rect x="10" y="39" width="9" height="1" fill="#693d28"/>
<rect x="19" y="39" width="2" height="1" fill="#472f21"/>
<rect x="21" y="39" width="1" height="1" fill="#17110d"/>
<rect x="22" y="39" width="1" height="1" fill="#000000"/>
<rect x="23" y="39" width="1" height="1" fill="#020201"/>
<rect x="3" y="40" width="1" height="1" fill="#020201"/>
<rect x="4" y="40" width="1" height="1" fill="#b4a692"/>
<rect x="5" y="40" width="3" height="1" fill="#28221d"/>
<rect x="8" y="40" width="11" height="1" fill="#693d28"/>
<rect x="19" y="40" width="2" height="1" fill="#472f21"/>
<rect x="21" y="40" width="1" height="1" fill="#080604"/>
<rect x="3" y="41" width="1" height="1" fill="#020201"/>
<rect x="4" y="41" width="1" height="1" fill="#cfc2ac"/>
<rect x="5" y="41" width="1" height="1" fill="#8e7a5b"/>
<rect x="6" y="41" width="1" height="1" fill="#28221d"/>
<rect x="7" y="41" width="1" height="1" fill="#020201"/>
<rect x="8" y="41" width="1" height="1" fill="#28221d"/>
<rect x="9" y="41" width="1" height="1" fill="#472f21"/>
<rect x="10" y="41" width="1" height="1" fill="#28221d"/>
<rect x="11" y="41" width="1" height="1" fill="#472f21"/>
<rect x="12" y="41" width="4" height="1" fill="#693d28"/>
<rect x="16" y="41" width="1" height="1" fill="#472f21"/>
<rect x="17" y="41" width="1" height="1" fill="#17110d"/>
<rect x="18" y="41" width="1" height="1" fill="#693d28"/>
<rect x="19" y="41" width="1" height="1" fill="#472f21"/>
<rect x="20" y="41" width="1" height="1" fill="#000002"/>
<rect x="21" y="41" width="2" height="1" fill="#685d55"/>
<rect x="23" y="41" width="1" height="1" fill="#0b0a08"/>
<rect x="3" y="42" width="1" height="1" fill="#000002"/>
<rect x="4" y="42" width="1" height="1" fill="#28221d"/>
<rect x="5" y="42" width="1" height="1" fill="#efe1c9"/>
<rect x="6" y="42" width="1" height="1" fill="#e7d9c2"/>
<rect x="7" y="42" width="1" height="1" fill="#28221d"/>
<rect x="8" y="42" width="2" height="1" fill="#17110d"/>
<rect x="10" y="42" width="1" height="1" fill="#000000"/>
<rect x="11" y="42" width="1" height="1" fill="#472f21"/>
<rect x="12" y="42" width="2" height="1" fill="#693d28"/>
<rect x="14" y="42" width="1" height="1" fill="#472f21"/>
<rect x="15" y="42" width="1" height="1" fill="#17110d"/>
<rect x="16" y="42" width="1" height="1" fill="#472f21"/>
<rect x="17" y="42" width="1" height="1" fill="#000000"/>
<rect x="18" y="42" width="1" height="1" fill="#17110d"/>
<rect x="19" y="42" width="1" height="1" fill="#080604"/>
<rect x="20" y="42" width="1" height="1" fill="#8e7a5b"/>
<rect x="21" y="42" width="1" height="1" fill="#b4a692"/>
<rect x="22" y="42" width="1" height="1" fill="#bfb29c"/>
<rect x="23" y="42" width="1" height="1" fill="#080604"/>
<rect x="4" y="43" width="1" height="1" fill="#040403"/>
<rect x="5" y="43" width="1" height="1" fill="#bfb29c"/>
<rect x="6" y="43" width="1" height="1" fill="#cfc2ac"/>
<rect x="7" y="43" width="1" height="1" fill="#4b433d"/>
<rect x="8" y="43" width="1" height="1" fill="#040403"/>
<rect x="9" y="43" width="1" height="1" fill="#000000"/>
<rect x="10" y="43" width="1" height="1" fill="#040403"/>
<rect x="11" y="43" width="1" height="1" fill="#080604"/>
<rect x="12" y="43" width="3" height="1" fill="#472f21"/>
<rect x="15" y="43" width="2" height="1" fill="#000000"/>
<rect x="18" y="43" width="1" height="1" fill="#000002"/>
<rect x="19" y="43" width="1" height="1" fill="#685d55"/>
<rect x="20" y="43" width="1" height="1" fill="#a79579"/>
<rect x="21" y="43" width="1" height="1" fill="#e7d9c2"/>
<rect x="22" y="43" width="1" height="1" fill="#0b0a08"/>
<rect x="23" y="43" width="1" height="1" fill="#080604"/>
<rect x="4" y="44" width="1" height="1" fill="#020201"/>
<rect x="5" y="44" width="1" height="1" fill="#472f21"/>
<rect x="6" y="44" width="1" height="1" fill="#bfb29c"/>
<rect x="7" y="44" width="1" height="1" fill="#4b433d"/>
<rect x="8" y="44" width="1" height="1" fill="#080604"/>
<rect x="11" y="44" width="1" height="1" fill="#040403"/>
<rect x="12" y="44" width="2" height="1" fill="#472f21"/>
<rect x="14" y="44" width="1" height="1" fill="#080604"/>
<rect x="18" y="44" width="1" height="1" fill="#080604"/>
<rect x="19" y="44" width="1" height="1" fill="#8e7a5b"/>
<rect x="20" y="44" width="1" height="1" fill="#cfc2ac"/>
<rect x="21" y="44" width="1" height="1" fill="#e7d9c2"/>
<rect x="22" y="44" width="1" height="1" fill="#080604"/>
<rect x="4" y="45" width="1" height="1" fill="#685d55"/>
<rect x="5" y="45" width="1" height="1" fill="#000000"/>
<rect x="6" y="45" width="1" height="1" fill="#bfb29c"/>
<rect x="7" y="45" width="1" height="1" fill="#8e7a5b"/>
<rect x="8" y="45" width="1" height="1" fill="#0b0a08"/>
<rect x="11" y="45" width="2" height="1" fill="#28221d"/>
<rect x="13" y="45" width="1" height="1" fill="#17110d"/>
<rect x="14" y="45" width="3" height="1" fill="#472f21"/>
<rect x="19" y="45" width="1" height="1" fill="#a79579"/>
<rect x="20" y="45" width="1" height="1" fill="#efe1c9"/>
<rect x="21" y="45" width="1" height="1" fill="#a79579"/>
<rect x="22" y="45" width="1" height="1" fill="#040403"/>
<rect x="4" y="46" width="1" height="1" fill="#685d55"/>
<rect x="5" y="46" width="1" height="1" fill="#000000"/>
<rect x="6" y="46" width="2" height="1" fill="#e7d9c2"/>
<rect x="8" y="46" width="1" height="1" fill="#0b0a08"/>
<rect x="12" y="46" width="1" height="1" fill="#0b0a08"/>
<rect x="13" y="46" width="1" height="1" fill="#17110d"/>
<rect x="15" y="46" width="2" height="1" fill="#17110d"/>
<rect x="18" y="46" width="1" height="1" fill="#17110d"/>
<rect x="19" y="46" width="1" height="1" fill="#cfc2ac"/>
<rect x="20" y="46" width="1" height="1" fill="#f9efd9"/>
<rect x="21" y="46" width="1" height="1" fill="#040403"/>
<rect x="4" y="47" width="1" height="1" fill="#080604"/>
<rect x="5" y="47" width="1" height="1" fill="#4b433d"/>
<rect x="6" y="47" width="1" height="1" fill="#8e7a5b"/>
<rect x="7" y="47" width="1" height="1" fill="#a79579"/>
<rect x="8" y="47" width="1" height="1" fill="#28221d"/>
<rect x="17" y="47" width="1" height="1" fill="#020201"/>
<rect x="18" y="47" width="1" height="1" fill="#a79579"/>
<rect x="19" y="47" width="1" height="1" fill="#f4e7d0"/>
<rect x="20" y="47" width="1" height="1" fill="#efe1c9"/>
<rect x="21" y="47" width="1" height="1" fill="#0b0a08"/>
<rect x="2" y="48" width="1" height="1" fill="#040403"/>
<rect x="3" y="48" width="1" height="1" fill="#8e7a5b"/>
<rect x="4" y="48" width="1" height="1" fill="#a79579"/>
<rect x="5" y="48" width="1" height="1" fill="#8e7a5b"/>
<rect x="6" y="48" width="1" height="1" fill="#bfb29c"/>
<rect x="7" y="48" width="1" height="1" fill="#cfc2ac"/>
<rect x="8" y="48" width="1" height="1" fill="#a79579"/>
<rect x="9" y="48" width="1" height="1" fill="#17110d"/>
<rect x="10" y="48" width="1" height="1" fill="#28221d"/>
<rect x="16" y="48" width="1" height="1" fill="#080604"/>
<rect x="17" y="48" width="1" height="1" fill="#28221d"/>
<rect x="18" y="48" width="1" height="1" fill="#cfc2ac"/>
<rect x="19" y="48" width="1" height="1" fill="#f9efd9"/>
<rect x="20" y="48" width="1" height="1" fill="#cfc2ac"/>
<rect x="21" y="48" width="1" height="1" fill="#0b0a08"/>
<rect x="2" y="49" width="1" height="1" fill="#8e7a5b"/>
<rect x="3" y="49" width="1" height="1" fill="#bfb29c"/>
<rect x="4" y="49" width="2" height="1" fill="#a79579"/>
<rect x="6" y="49" width="1" height="1" fill="#e7d9c2"/>
<rect x="7" y="49" width="1" height="1" fill="#efe1c9"/>
<rect x="8" y="49" width="1" height="1" fill="#cfc2ac"/>
<rect x="9" y="49" width="2" height="1" fill="#28221d"/>
<rect x="16" y="49" width="1" height="1" fill="#040403"/>
<rect x="17" y="49" width="1" height="1" fill="#685d55"/>
<rect x="18" y="49" width="1" height="1" fill="#cfc2ac"/>
<rect x="19" y="49" width="1" height="1" fill="#f9efd9"/>
<rect x="20" y="49" width="1" height="1" fill="#cfc2ac"/>
<rect x="21" y="49" width="1" height="1" fill="#4b433d"/>
<rect x="2" y="50" width="1" height="1" fill="#685d55"/>
<rect x="3" y="50" width="1" height="1" fill="#cfc2ac"/>
<rect x="4" y="50" width="1" height="1" fill="#e7d9c2"/>
<rect x="5" y="50" width="1" height="1" fill="#ebdfc7"/>
<rect x="6" y="50" width="2" height="1" fill="#f4e7d0"/>
<rect x="8" y="50" width="1" height="1" fill="#e7d9c2"/>
<rect x="9" y="50" width="1" height="1" fill="#28221d"/>
<rect x="10" y="50" width="1" height="1" fill="#17110d"/>
<rect x="16" y="50" width="1" height="1" fill="#472f21"/>
<rect x="17" y="50" width="1" height="1" fill="#000000"/>
<rect x="18" y="50" width="1" height="1" fill="#020201"/>
<rect x="19" y="50" width="3" height="1" fill="#000000"/>
<rect x="2" y="51" width="1" height="1" fill="#020201"/>
<rect x="3" y="51" width="1" height="1" fill="#000000"/>
<rect x="4" y="51" width="1" height="1" fill="#8e7a5b"/>
<rect x="5" y="51" width="1" height="1" fill="#bfb29c"/>
<rect x="6" y="51" width="2" height="1" fill="#f4e7d0"/>
<rect x="8" y="51" width="1" height="1" fill="#b4a692"/>
<rect x="9" y="51" width="1" height="1" fill="#020201"/>
<rect x="10" y="51" width="1" height="1" fill="#4b433d"/>
<rect x="16" y="51" width="1" height="1" fill="#0b0a08"/>
<rect x="17" y="51" width="1" height="1" fill="#8e7a5b"/>
<rect x="18" y="51" width="1" height="1" fill="#ebdfc7"/>
<rect x="19" y="51" width="1" height="1" fill="#f9efd9"/>
<rect x="20" y="51" width="1" height="1" fill="#ebdfc7"/>
<rect x="21" y="51" width="1" height="1" fill="#020201"/>
<rect x="4" y="52" width="1" height="1" fill="#020201"/>
<rect x="5" y="52" width="3" height="1" fill="#0b0a08"/>
<rect x="8" y="52" width="1" height="1" fill="#080604"/>
<rect x="9" y="52" width="1" height="1" fill="#4b433d"/>
<rect x="16" y="52" width="1" height="1" fill="#0b0a08"/>
<rect x="17" y="52" width="1" height="1" fill="#8e7a5b"/>
<rect x="18" y="52" width="1" height="1" fill="#cfc2ac"/>
<rect x="19" y="52" width="1" height="1" fill="#efe1c9"/>
<rect x="20" y="52" width="1" height="1" fill="#b4a692"/>
<rect x="21" y="52" width="1" height="1" fill="#040403"/>
<rect x="17" y="53" width="1" height="1" fill="#040403"/>
<rect x="18" y="53" width="1" height="1" fill="#efe1c9"/>
<rect x="19" y="53" width="1" height="1" fill="#e7d9c2"/>
<rect x="20" y="53" width="1" height="1" fill="#000000"/>
<rect x="21" y="53" width="1" height="1" fill="#28221d"/>
<rect x="16" y="54" width="2" height="1" fill="#0b0a08"/>
<rect x="18" y="54" width="1" height="1" fill="#f9efd9"/>
<rect x="19" y="54" width="1" height="1" fill="#ebdfc7"/>
<rect x="20" y="54" width="1" height="1" fill="#000000"/>
<rect x="16" y="55" width="2" height="1" fill="#17110d"/>
<rect x="18" y="55" width="1" height="1" fill="#f9efd9"/>
<rect x="19" y="55" width="1" height="1" fill="#bfb29c"/>
<rect x="20" y="55" width="1" height="1" fill="#020201"/>
<rect x="16" y="56" width="1" height="1" fill="#0b0a08"/>
<rect x="17" y="56" width="1" height="1" fill="#28221d"/>
<rect x="18" y="56" width="1" height="1" fill="#f9efd9"/>
<rect x="19" y="56" width="1" height="1" fill="#8e7a5b"/>
<rect x="20" y="56" width="1" height="1" fill="#040403"/>
<rect x="16" y="57" width="1" height="1" fill="#0b0a08"/>
<rect x="17" y="57" width="1" height="1" fill="#685d55"/>
<rect x="18" y="57" width="1" height="1" fill="#f4e7d0"/>
<rect x="19" y="57" width="1" height="1" fill="#685d55"/>
<rect x="20" y="57" width="1" height="1" fill="#000000"/>
<rect x="17" y="58" width="2" height="1" fill="#bfb29c"/>
<rect x="19" y="58" width="1" height="1" fill="#b4a692"/>
<rect x="20" y="58" width="1" height="1" fill="#000000"/>
<rect x="15" y="59" width="1" height="1" fill="#000000"/>
<rect x="16" y="59" width="1" height="1" fill="#685d55"/>
<rect x="17" y="59" width="1" height="1" fill="#bfb29c"/>
<rect x="18" y="59" width="1" height="1" fill="#efe1c9"/>
<rect x="19" y="59" width="1" height="1" fill="#b4a692"/>
<rect x="20" y="59" width="1" height="1" fill="#a79579"/>
<rect x="21" y="59" width="1" height="1" fill="#472f21"/>
<rect x="22" y="59" width="1" height="1" fill="#020201"/>
<rect x="15" y="60" width="1" height="1" fill="#040403"/>
<rect x="16" y="60" width="1" height="1" fill="#bfb29c"/>
<rect x="17" y="60" width="1" height="1" fill="#e7d9c2"/>
<rect x="18" y="60" width="1" height="1" fill="#f4e7d0"/>
<rect x="19" y="60" width="1" height="1" fill="#efe1c9"/>
<rect x="20" y="60" width="1" height="1" fill="#bfb29c"/>
<rect x="21" y="60" width="2" height="1" fill="#a79579"/>
<rect x="15" y="61" width="1" height="1" fill="#000000"/>
<rect x="16" y="61" width="1" height="1" fill="#cfc2ac"/>
<rect x="17" y="61" width="1" height="1" fill="#efe1c9"/>
<rect x="18" y="61" width="2" height="1" fill="#f4e7d0"/>
<rect x="20" y="61" width="1" height="1" fill="#efe1c9"/>
<rect x="21" y="61" width="1" height="1" fill="#bfb29c"/>
<rect x="22" y="61" width="1" height="1" fill="#8e7a5b"/>
<rect x="23" y="61" width="1" height="1" fill="#000002"/>
<rect x="15" y="62" width="1" height="1" fill="#020201"/>
<rect x="16" y="62" width="1" height="1" fill="#0b0a08"/>
<rect x="17" y="62" width="1" height="1" fill="#f4e7d0"/>
<rect x="18" y="62" width="2" height="1" fill="#f9efd9"/>
<rect x="20" y="62" width="1" height="1" fill="#8e7a5b"/>
<rect x="16" y="63" width="1" height="1" fill="#040403"/>
<rect x="17" y="63" width="1" height="1" fill="#000002"/>
<rect x="18" y="63" width="2" height="1" fill="#040403"/>
</svg>
