<svg xmlns="http://www.w3.org/2000/svg" width="24" height="24" viewBox="0 0 24 24" shape-rendering="crispEdges">
<rect x="7" y="0" width="2" height="1" fill="#0a0708"/>
<rect x="10" y="0" width="2" height="1" fill="#0a0708"/>
<rect x="14" y="0" width="2" height="1" fill="#0a0708"/>
<rect x="6" y="1" width="13" height="1" fill="#0a0708"/>
<rect x="6" y="2" width="1" height="1" fill="#0a0708"/>
<rect x="7" y="2" width="1" height="1" fill="#211217"/>
<rect x="8" y="2" width="9" height="1" fill="#3a2228"/>
<rect x="17" y="2" width="1" height="1" fill="#211217"/>
<rect x="18" y="2" width="1" height="1" fill="#0a0708"/>
<rect x="4" y="3" width="3" height="1" fill="#0a0708"/>
<rect x="7" y="3" width="1" height="1" fill="#211217"/>
<rect x="8" y="3" width="1" height="1" fill="#3a2228"/>
<rect x="9" y="3" width="7" height="1" fill="#a77e70"/>
<rect x="16" y="3" width="1" height="1" fill="#3a2228"/>
<rect x="17" y="3" width="1" height="1" fill="#211217"/>
<rect x="18" y="3" width="3" height="1" fill="#0a0708"/>
<rect x="4" y="4" width="1" height="1" fill="#0a0708"/>
<rect x="5" y="4" width="1" height="1" fill="#a77e70"/>
<rect x="6" y="4" width="1" height="1" fill="#0a0708"/>
<rect x="7" y="4" width="1" height="1" fill="#211217"/>
<rect x="8" y="4" width="2" height="1" fill="#a77e70"/>
<rect x="10" y="4" width="5" height="1" fill="#e0b29e"/>
<rect x="15" y="4" width="2" height="1" fill="#a77e70"/>
<rect x="17" y="4" width="1" height="1" fill="#211217"/>
<rect x="18" y="4" width="1" height="1" fill="#0a0708"/>
<rect x="19" y="4" width="1" height="1" fill="#a77e70"/>
<rect x="20" y="4" width="1" height="1" fill="#0a0708"/>
<rect x="3" y="5" width="2" height="1" fill="#0a0708"/>
<rect x="5" y="5" width="1" height="1" fill="#e0b29e"/>
<rect x="6" y="5" width="1" height="1" fill="#0a0708"/>
<rect x="7" y="5" width="1" height="1" fill="#211217"/>
<rect x="8" y="5" width="1" height="1" fill="#a77e70"/>
<rect x="9" y="5" width="1" height="1" fill="#ffd0db"/>
<rect x="10" y="5" width="1" height="1" fill="#ff6c8d"/>
<rect x="11" y="5" width="3" height="1" fill="#a77e70"/>
<rect x="14" y="5" width="1" height="1" fill="#ff6c8d"/>
<rect x="15" y="5" width="1" height="1" fill="#ffd0db"/>
<rect x="16" y="5" width="1" height="1" fill="#a77e70"/>
<rect x="17" y="5" width="1" height="1" fill="#211217"/>
<rect x="18" y="5" width="1" height="1" fill="#0a0708"/>
<rect x="19" y="5" width="1" height="1" fill="#e0b29e"/>
<rect x="20" y="5" width="1" height="1" fill="#0a0708"/>
<rect x="1" y="6" width="4" height="1" fill="#0a0708"/>
<rect x="5" y="6" width="1" height="1" fill="#e0b29e"/>
<rect x="6" y="6" width="1" height="1" fill="#0a0708"/>
<rect x="7" y="6" width="1" height="1" fill="#211217"/>
<rect x="8" y="6" width="9" height="1" fill="#a77e70"/>
<rect x="17" y="6" width="1" height="1" fill="#211217"/>
<rect x="18" y="6" width="1" height="1" fill="#0a0708"/>
<rect x="19" y="6" width="1" height="1" fill="#e0b29e"/>
<rect x="20" y="6" width="1" height="1" fill="#0a0708"/>
<rect x="1" y="7" width="4" height="1" fill="#0a0708"/>
<rect x="5" y="7" width="1" height="1" fill="#a77e70"/>
<rect x="6" y="7" width="1" height="1" fill="#0a0708"/>
<rect x="7" y="7" width="1" height="1" fill="#211217"/>
<rect x="8" y="7" width="2" height="1" fill="#a77e70"/>
<rect x="10" y="7" width="5" height="1" fill="#e0b29e"/>
<rect x="15" y="7" width="2" height="1" fill="#a77e70"/>
<rect x="17" y="7" width="1" height="1" fill="#211217"/>
<rect x="18" y="7" width="1" height="1" fill="#0a0708"/>
<rect x="19" y="7" width="1" height="1" fill="#a77e70"/>
<rect x="20" y="7" width="1" height="1" fill="#0a0708"/>
<rect x="0" y="8" width="1" height="1" fill="#0a0708"/>
<rect x="1" y="8" width="1" height="1" fill="#5b353e"/>
<rect x="4" y="8" width="3" height="1" fill="#0a0708"/>
<rect x="7" y="8" width="1" height="1" fill="#211217"/>
<rect x="8" y="8" width="9" height="1" fill="#a77e70"/>
<rect x="17" y="8" width="1" height="1" fill="#211217"/>
<rect x="18" y="8" width="3" height="1" fill="#0a0708"/>
<rect x="0" y="9" width="1" height="1" fill="#0a0708"/>
<rect x="1" y="9" width="1" height="1" fill="#5b353e"/>
<rect x="5" y="9" width="2" height="1" fill="#0a0708"/>
<rect x="7" y="9" width="1" height="1" fill="#211217"/>
<rect x="8" y="9" width="3" height="1" fill="#a77e70"/>
<rect x="11" y="9" width="4" height="1" fill="#ff6c8d"/>
<rect x="15" y="9" width="2" height="1" fill="#a77e70"/>
<rect x="17" y="9" width="1" height="1" fill="#211217"/>
<rect x="18" y="9" width="1" height="1" fill="#0a0708"/>
<rect x="0" y="10" width="1" height="1" fill="#0a0708"/>
<rect x="1" y="10" width="1" height="1" fill="#5b353e"/>
<rect x="5" y="10" width="2" height="1" fill="#0a0708"/>
<rect x="7" y="10" width="3" height="1" fill="#211217"/>
<rect x="10" y="10" width="5" height="1" fill="#0a0708"/>
<rect x="15" y="10" width="3" height="1" fill="#211217"/>
<rect x="18" y="10" width="2" height="1" fill="#0a0708"/>
<rect x="0" y="11" width="2" height="1" fill="#0a0708"/>
<rect x="2" y="11" width="2" height="1" fill="#3a2228"/>
<rect x="4" y="11" width="3" height="1" fill="#0a0708"/>
<rect x="7" y="11" width="3" height="1" fill="#211217"/>
<rect x="10" y="11" width="5" height="1" fill="#3a2228"/>
<rect x="15" y="11" width="3" height="1" fill="#211217"/>
<rect x="18" y="11" width="3" height="1" fill="#0a0708"/>
<rect x="1" y="12" width="1" height="1" fill="#0a0708"/>
<rect x="2" y="12" width="2" height="1" fill="#3a2228"/>
<rect x="4" y="12" width="3" height="1" fill="#0a0708"/>
<rect x="7" y="12" width="3" height="1" fill="#211217"/>
<rect x="10" y="12" width="5" height="1" fill="#3a2228"/>
<rect x="15" y="12" width="3" height="1" fill="#211217"/>
<rect x="18" y="12" width="3" height="1" fill="#0a0708"/>
<rect x="1" y="13" width="9" height="1" fill="#0a0708"/>
<rect x="10" y="13" width="5" height="1" fill="#3a2228"/>
<rect x="15" y="13" width="2" height="1" fill="#0a0708"/>
<rect x="17" y="13" width="1" height="1" fill="#5b353e"/>
<rect x="18" y="13" width="3" height="1" fill="#0a0708"/>
<rect x="4" y="14" width="6" height="1" fill="#0a0708"/>
<rect x="10" y="14" width="5" height="1" fill="#3a2228"/>
<rect x="15" y="14" width="2" height="1" fill="#0a0708"/>
<rect x="17" y="14" width="1" height="1" fill="#5b353e"/>
<rect x="18" y="14" width="3" height="1" fill="#0a0708"/>
<rect x="4" y="15" width="6" height="1" fill="#0a0708"/>
<rect x="10" y="15" width="5" height="1" fill="#3a2228"/>
<rect x="15" y="15" width="6" height="1" fill="#0a0708"/>
<rect x="5" y="16" width="1" height="1" fill="#0a0708"/>
<rect x="6" y="16" width="5" height="1" fill="#211217"/>
<rect x="11" y="16" width="3" height="1" fill="#ff6c8d"/>
<rect x="14" y="16" width="4" height="1" fill="#211217"/>
<rect x="18" y="16" width="1" height="1" fill="#0a0708"/>
<rect x="5" y="17" width="1" height="1" fill="#0a0708"/>
<rect x="6" y="17" width="12" height="1" fill="#211217"/>
<rect x="18" y="17" width="1" height="1" fill="#0a0708"/>
<rect x="5" y="18" width="14" height="1" fill="#0a0708"/>
<rect x="1" y="19" width="3" height="1" fill="#ff6c8d"/>
<rect x="5" y="19" width="6" height="1" fill="#0a0708"/>
<rect x="13" y="19" width="1" height="1" fill="#0a0708"/>
<rect x="14" y="19" width="4" height="1" fill="#a77e70"/>
<rect x="18" y="19" width="2" height="1" fill="#e0b29e"/>
<rect x="4" y="20" width="2" height="1" fill="#e0b29e"/>
<rect x="6" y="20" width="4" height="1" fill="#a77e70"/>
<rect x="10" y="20" width="1" height="1" fill="#0a0708"/>
<rect x="14" y="20" width="6" height="1" fill="#a77e70"/>
<rect x="0" y="21" width="4" height="1" fill="#ff6c8d"/>
<rect x="4" y="21" width="6" height="1" fill="#a77e70"/>
</svg>
