<svg xmlns="http://www.w3.org/2000/svg" width="60" height="80" viewBox="0 0 60 80" shape-rendering="crispEdges">
<!-- frameB-left-hand-high -->
<rect width="60" height="80" fill="none"/>
<path fill="#16141a" d="M12 7h7V3h6V1h7v3h7V2h5v5h7v5h5v10h-4v6h-8v4H16v-3H9v-5H5V14h5z"/>
<path fill="#60331d" d="M14 9h7V5h6V3h5v4h6V4h4v5h7v5h4v7h-5v5h-7v3H17v-3h-6v-5H8v-6h6z"/>
<path fill="#9a5328" d="M18 7h5V5h5v5h4V6h5v4h5V8h4v5h4v4h-6v4h-4v3h-5v-4h-4v4h-6v-3h-5v3h-6v-4h-4v-4h5v-5h3z"/>
<path fill="#c16b32" d="M22 6h5v4h4V7h4v5h-3v4h-5v-3h-5z"/>
<path fill="#18151a" d="M13 28h34v9h-7l-1 4-8-1H16v-4H9z"/>
<path fill="#a5202c" d="M14 29h31v6H14z"/>
<path fill="#d43a42" d="M17 29h25v3H17z"/>
<path fill="#8d1d28" d="M15 35h10l-2 13-10 11H4l8-10z"/>
<path fill="#d2353e" d="M16 36h6l-2 10-9 9H7l7-9z"/>
<path fill="#111923" d="M16 35h28v26H16z"/>
<path fill="#173050" d="M18 36h24v23H18z"/>
<path fill="#28517b" d="M21 38h17v17H21z"/>
<path fill="#10243d" d="M18 54h24v8H18z"/>
<path fill="#2a1f19" d="M15 59h30v7H15z"/>
<rect x="18" y="60" width="24" height="5" fill="#80502c"/>
<rect x="27" y="60" width="7" height="5" fill="#d4a33d"/>
<path fill="#18181d" d="M39 37h5L26 69h-5z"/>
<path fill="#6d4327" d="M40 39h2L26 67h-3z"/>
<path fill="#c8a63d" d="M41 35h5v5h-3l-2 4-3-2z"/>
<path fill="#e2c55a" d="M42 35h3v3h-2l-2 3-2-1z"/>
<!-- LEFT hand high -->
<path fill="#151b23" d="M18 38h-5v-9h-3V14h8v13h4v9z"/>
<path fill="#7f96ab" d="M19 38h-4v-9h-3V16h5v11h4v8z"/>
<path fill="#d5e0e7" d="M18 31h-4v-4h-2v6h5z"/>
<rect x="9" y="8" width="8" height="8" fill="#a96339"/>
<rect x="10" y="9" width="6" height="6" fill="#c47d4b"/>
<!-- RIGHT hand low -->
<path fill="#151b23" d="M42 38h6v4h3v10h-5v4h-8v-6h-4v-8h4v-4z"/>
<path fill="#7f96ab" d="M43 39h4v4h2v7h-4v3h-5v-5h-4v-5h4v-4z"/>
<path fill="#d5e0e7" d="M46 40h-4v3h-3v3h7z"/>
<rect x="46" y="49" width="7" height="7" fill="#a96339"/>
<rect x="47" y="50" width="5" height="5" fill="#c47d4b"/>
<!-- RIGHT leg low / LEFT knee high -->
<path fill="#101824" d="M30 64h14v10h3v6H33v-8h-3z"/>
<path fill="#183252" d="M32 64h10v8h3v5H35v-5h-2z"/>
<path fill="#101824" d="M15 63h15v8h-5v8H11v-5h-1z"/>
<path fill="#20466e" d="M17 64h11v6h-4v6H14v-4h-1z"/>
<path fill="#3b251b" d="M32 73h16v7H32z"/>
<path fill="#81502d" d="M34 73h12v5H34z"/>
<path fill="#3b251b" d="M9 71h15v8H9z"/>
<path fill="#81502d" d="M11 72h11v5H11z"/>
</svg>
