<svg xmlns="http://www.w3.org/2000/svg" width="56" height="84" viewBox="0 0 56 84" shape-rendering="crispEdges">
<rect width="56" height="84" fill="none"/>
<!-- hair outline -->
<path fill="#181419" d="M16 7h5V4h4V2h7v2h5v3h5v3h5v5h3v10h-3v5h-5v4H15v-3h-5v-6H7V15h4v-5h5z"/>
<path fill="#60361f" d="M16 9h5V6h5V4h6v3h5v2h5v4h4v9h-4v5h-5v3H16v-3h-4v-6H10v-5h3v-5h3z"/>
<path fill="#8a4c27" d="M19 7h5V5h5v3h5V6h3v5h5v4h-4v3h3v4h-5v-3h-3v4h-5v-3h-4v3h-5v-4h-4v-4h4v-3h-3v-3h3z"/>
<path fill="#b26531" d="M22 6h4v3h4V7h4v4h-3v4h-4v-3h-5z"/>
<path fill="#3d251b" d="M15 23h4v5h18v-5h5v5h-4v5H18v-4h-3z"/>
<!-- neck/scarf -->
<rect x="23" y="31" width="10" height="5" fill="#d39a6d"/>
<path fill="#761e26" d="M12 34h32v7H12z"/>
<path fill="#b92d33" d="M15 34h26v4H15z"/>
<path fill="#8e2028" d="M14 39h9l-2 13-8 12H8l5-13z"/>
<path fill="#d23c3f" d="M15 40h5l-2 10-5 8h-2l3-10z"/>
<!-- torso / armor -->
<path fill="#0f1724" d="M17 40h22v24H17z"/>
<path fill="#1d3554" d="M19 40h18v21H19z"/>
<path fill="#2d4f77" d="M22 42h12v16H22z"/>
<path fill="#15263e" d="M18 56h20v8H18z"/>
<!-- silver shoulder -->
<path fill="#313944" d="M12 40h7v4h3v8h-3v4h-8v-3H8v-9h4z"/>
<path fill="#8fa3b7" d="M12 41h6v3h2v6h-2v3h-6v-2H10v-7h2z"/>
<path fill="#c1d0db" d="M13 42h4v2h2v2h-7v-3h1z"/>
<!-- belt -->
<rect x="16" y="61" width="24" height="6" fill="#4b301e"/>
<rect x="18" y="62" width="20" height="4" fill="#8d5a2c"/>
<rect x="25" y="61" width="7" height="6" fill="#d6a33d"/>
<!-- sword/scabbard -->
<path fill="#1d1c20" d="M38 41h4l-13 30h-4z"/>
<path fill="#4b2f20" d="M39 42h2L29 69h-2z"/>
<rect x="38" y="38" width="4" height="8" fill="#aab7c1"/>
<rect x="37" y="39" width="6" height="3" fill="#d7e1e8"/>
<rect x="25" y="68" width="10" height="3" fill="#2a201b"/>
<!-- LEFT arm high / RIGHT arm low -->
<path fill="#2c3644" d="M17 42h-6v-7H9V24h6v9h5v6z"/>
<path fill="#91a4b7" d="M13 34h5v5h-4v4h-5v-6h4z"/>
<path fill="#c68e61" d="M9 22h7v7H9z"/>
<path fill="#75492c" d="M10 23h5v5h-5z"/>
<path fill="#2a3442" d="M39 43h6v5h3v10h-6v-6h-6v-6z"/>
<path fill="#8ea2b5" d="M39 44h4v5h3v5h-4v-3h-5v-5z"/>
<path fill="#c68e61" d="M42 56h7v7h-7z"/>
<path fill="#75492c" d="M43 57h5v5h-5z"/>
<!-- LEFT knee high / RIGHT leg low -->
<path fill="#14243b" d="M18 66h11v7h-4v7H13v-7h4z"/>
<path fill="#1d3554" d="M20 66h8v5h-4v6h-8v-4h3z"/>
<path fill="#14243b" d="M29 66h10v9h3v9H31V74h-3z"/>
<path fill="#704327" d="M12 76h14v7H12z"/>
<path fill="#9a5d31" d="M14 77h11v4H14z"/>
<path fill="#6a3f25" d="M31 79h13v5H31z"/>
</svg>
